<mxfile host="app.diagrams.net" modified="2023-05-21T16:34:34.234Z" agent="Mozilla/5.0 (Windows NT 10.0; Win64; x64) AppleWebKit/537.36 (KHTML, like Gecko) Chrome/113.0.0.0 Safari/537.36" etag="mVLhi597h9t6EM_qtecC" version="21.3.2" type="github">
  <diagram name="Page-1" id="OwvM6_rAIq4jk0VpodGS">
    <mxGraphModel dx="1193" dy="720" grid="1" gridSize="10" guides="1" tooltips="1" connect="1" arrows="1" fold="1" page="1" pageScale="1" pageWidth="850" pageHeight="1100" math="0" shadow="0">
      <root>
        <mxCell id="0" />
        <mxCell id="1" parent="0" />
        <mxCell id="KkP1DPNossI2hUXs8QKi-1" value="Inboxify database Design" style="text;html=1;align=center;verticalAlign=middle;resizable=0;points=[];autosize=1;strokeColor=#A50040;fillColor=#d80073;fontColor=#ffffff;" vertex="1" parent="1">
          <mxGeometry x="300" y="60" width="160" height="30" as="geometry" />
        </mxCell>
        <mxCell id="KkP1DPNossI2hUXs8QKi-2" value="&lt;font style=&quot;font-size: 20px;&quot;&gt;&lt;u&gt;&lt;br&gt;&lt;br&gt;&lt;/u&gt;&amp;nbsp;&lt;u&gt;id&lt;br&gt;&lt;/u&gt;&amp;nbsp;username&amp;nbsp;&lt;br&gt;&amp;nbsp;email&lt;br&gt;&amp;nbsp;bday&lt;br&gt;&lt;/font&gt;&lt;div style=&quot;font-size: 20px;&quot;&gt;&lt;font style=&quot;font-size: 20px;&quot;&gt;&amp;nbsp;name&lt;/font&gt;&lt;/div&gt;&lt;div style=&quot;font-size: 20px;&quot;&gt;&lt;font style=&quot;font-size: 20px;&quot;&gt;&amp;nbsp;lname&lt;/font&gt;&lt;/div&gt;&lt;div style=&quot;font-size: 20px;&quot;&gt;&amp;nbsp;password&lt;/div&gt;&lt;div style=&quot;font-size: 20px;&quot;&gt;&amp;nbsp;API_KEY&lt;/div&gt;&lt;div style=&quot;font-size: 20px;&quot;&gt;&amp;nbsp;api_exp&lt;/div&gt;&lt;div style=&quot;font-size: 20px;&quot;&gt;&amp;nbsp;created_at&lt;/div&gt;&lt;div style=&quot;font-size: 20px;&quot;&gt;&amp;nbsp;updated_at&lt;/div&gt;&lt;div style=&quot;font-size: 20px;&quot;&gt;&amp;nbsp;&lt;/div&gt;" style="rounded=0;whiteSpace=wrap;html=1;align=left;" vertex="1" parent="1">
          <mxGeometry x="30" y="170" width="250" height="340" as="geometry" />
        </mxCell>
        <mxCell id="KkP1DPNossI2hUXs8QKi-3" value="Users" style="rounded=0;whiteSpace=wrap;html=1;" vertex="1" parent="1">
          <mxGeometry x="30" y="170" width="250" height="40" as="geometry" />
        </mxCell>
        <mxCell id="KkP1DPNossI2hUXs8QKi-4" value="&lt;font style=&quot;font-size: 20px;&quot;&gt;&amp;nbsp;&lt;u&gt;id&lt;br&gt;&lt;/u&gt;&amp;nbsp;Name&amp;nbsp;&lt;br&gt;&amp;nbsp;Domain&lt;br&gt;&amp;nbsp;Color&lt;br&gt;&lt;/font&gt;&lt;div style=&quot;font-size: 20px;&quot;&gt;&lt;font style=&quot;font-size: 20px;&quot;&gt;&amp;nbsp;Description&lt;/font&gt;&lt;/div&gt;&lt;div style=&quot;font-size: 20px;&quot;&gt;&lt;font style=&quot;font-size: 20px;&quot;&gt;&amp;nbsp;owner&lt;/font&gt;&lt;/div&gt;&lt;div style=&quot;font-size: 20px;&quot;&gt;&amp;nbsp;created_at&lt;/div&gt;&lt;div style=&quot;font-size: 20px;&quot;&gt;&amp;nbsp;updated_at&lt;/div&gt;&lt;div style=&quot;font-size: 20px;&quot;&gt;&amp;nbsp;&lt;/div&gt;" style="rounded=0;whiteSpace=wrap;html=1;align=left;" vertex="1" parent="1">
          <mxGeometry x="650" y="160" width="250" height="340" as="geometry" />
        </mxCell>
        <mxCell id="KkP1DPNossI2hUXs8QKi-5" value="Clusters" style="rounded=0;whiteSpace=wrap;html=1;" vertex="1" parent="1">
          <mxGeometry x="650" y="160" width="250" height="40" as="geometry" />
        </mxCell>
      </root>
    </mxGraphModel>
  </diagram>
</mxfile>
